<?xml version="1.0" encoding="UTF-8"?>
<svg version="1.1" xmlns="http://www.w3.org/2000/svg" width="85" height="75">
<path d="M0 0 C28.05 0 56.1 0 85 0 C85 24.75 85 49.5 85 75 C56.95 75 28.9 75 0 75 C0 50.25 0 25.5 0 0 Z " fill="#FDFDFE" transform="translate(0,0)"/>
<path d="M0 0 C0.79857422 -0.01611328 1.59714844 -0.03222656 2.41992188 -0.04882812 C8.14759508 -0.0535735 11.3971051 1.0278758 15.8125 4.8125 C18.00261941 7.44064329 18.19363345 10.04314359 18.23950195 13.3215332 C18.25875481 14.52342033 18.25875481 14.52342033 18.27839661 15.74958801 C18.28578354 16.61210678 18.29317047 17.47462555 18.30078125 18.36328125 C18.308853 19.25484421 18.31692474 20.14640717 18.32524109 21.06498718 C18.33906906 22.95207786 18.34979697 24.83919342 18.35766602 26.72631836 C18.37487345 29.603838 18.41876988 32.48020681 18.46289062 35.35742188 C18.47301855 37.1926999 18.48153434 39.02798768 18.48828125 40.86328125 C18.50578934 41.71972733 18.52329742 42.5761734 18.54133606 43.45857239 C18.52178916 48.87528316 17.77377418 52.08204681 14.0625 56.3125 C10.93160058 58.56117223 8.2140158 58.54815442 4.421875 58.5078125 C3.35195313 58.50136719 2.28203125 58.49492188 1.1796875 58.48828125 C0.06851563 58.47152344 -1.04265625 58.45476562 -2.1875 58.4375 C-3.31414063 58.42847656 -4.44078125 58.41945312 -5.6015625 58.41015625 C-8.38042365 58.38660658 -11.1588539 58.3537168 -13.9375 58.3125 C-13.9375 56.6625 -13.9375 55.0125 -13.9375 53.3125 C-13.35258789 53.29791748 -12.76767578 53.28333496 -12.16503906 53.26831055 C-9.50520603 53.1936643 -6.84660552 53.09706101 -4.1875 53 C-3.26710938 52.97744141 -2.34671875 52.95488281 -1.3984375 52.93164062 C-0.50898437 52.89619141 0.38046875 52.86074219 1.296875 52.82421875 C2.52229004 52.78494263 2.52229004 52.78494263 3.77246094 52.74487305 C6.58556477 52.21374225 8.0037681 51.28316247 10.0625 49.3125 C10.54381185 45.98667848 10.49991363 42.79907923 10.49609375 39.44140625 C11.0625 36.3125 11.0625 36.3125 13.59765625 33.90234375 C14.41105469 33.37769531 15.22445312 32.85304687 16.0625 32.3125 C15.09594482 31.71223999 15.09594482 31.71223999 14.10986328 31.09985352 C12.0625 29.3125 12.0625 29.3125 11.45654297 27.16772461 C11.40643066 26.35827393 11.35631836 25.54882324 11.3046875 24.71484375 C11.20220703 23.38936523 11.20220703 23.38936523 11.09765625 22.03710938 C11.04480469 21.11736328 10.99195312 20.19761719 10.9375 19.25 C10.81780221 17.42524541 10.69055996 15.6009653 10.5546875 13.77734375 C10.50683105 12.969021 10.45897461 12.16069824 10.40966797 11.32788086 C10.22348791 9.0889507 10.22348791 9.0889507 8.0625 7.3125 C5.51714859 7.11400929 3.10533241 7.03398225 0.5625 7.0625 C-0.47197266 7.05089844 -0.47197266 7.05089844 -1.52734375 7.0390625 C-5.68964386 6.9363695 -5.68964386 6.9363695 -8.9375 9.3125 C-9.30581081 11.24507855 -9.30581081 11.24507855 -9.3515625 13.4453125 C-9.39023437 14.25097656 -9.42890625 15.05664062 -9.46875 15.88671875 C-9.4996875 16.72847656 -9.530625 17.57023437 -9.5625 18.4375 C-9.60117187 19.28699219 -9.63984375 20.13648437 -9.6796875 21.01171875 C-9.77406494 23.11161684 -9.85687586 25.21202891 -9.9375 27.3125 C-9.2775 27.3125 -8.6175 27.3125 -7.9375 27.3125 C-7.6075 27.9725 -7.2775 28.6325 -6.9375 29.3125 C-0.9975 29.6425 4.9425 29.9725 11.0625 30.3125 C11.0625 31.9625 11.0625 33.6125 11.0625 35.3125 C7.83350574 35.4000127 4.60481884 35.45306146 1.375 35.5 C0.46298828 35.52513672 -0.44902344 35.55027344 -1.38867188 35.57617188 C-6.40811326 35.63092942 -9.87609476 35.62090308 -13.9375 32.3125 C-17.91888208 28.33111792 -17.18555261 22.75655778 -17.25 17.4375 C-17.27900391 16.64730469 -17.30800781 15.85710938 -17.33789062 15.04296875 C-17.39613557 9.65755148 -16.61222655 6.5213812 -12.9375 2.3125 C-9.28640416 -0.61343592 -4.46700859 -0.01793979 0 0 Z " fill="#8668BB" transform="translate(43.9375,8.6875)"/>
<path d="M0 0 C0.33 0 0.66 0 1 0 C1 2.97 1 5.94 1 9 C2.98 8.67 4.96 8.34 7 8 C7.09938095 12.16253275 7.17170617 16.32442479 7.21972656 20.48779297 C7.23975843 21.90197795 7.26699248 23.31608097 7.30175781 24.72998047 C7.35065489 26.77071419 7.37305123 28.8103469 7.390625 30.8515625 C7.41157227 32.07697754 7.43251953 33.30239258 7.45410156 34.56494141 C6.90616505 38.70981601 5.65740822 40.80213162 3 44 C-0.13089942 46.24867223 -2.8484842 46.23565442 -6.640625 46.1953125 C-7.71054687 46.18886719 -8.78046875 46.18242188 -9.8828125 46.17578125 C-10.99398437 46.15902344 -12.10515625 46.14226562 -13.25 46.125 C-14.37664063 46.11597656 -15.50328125 46.10695312 -16.6640625 46.09765625 C-19.44292365 46.07410658 -22.2213539 46.0412168 -25 46 C-25 44.35 -25 42.7 -25 41 C-24.41508789 40.98541748 -23.83017578 40.97083496 -23.22753906 40.95581055 C-20.56770603 40.8811643 -17.90910552 40.78456101 -15.25 40.6875 C-14.32960938 40.66494141 -13.40921875 40.64238281 -12.4609375 40.61914062 C-11.57148437 40.58369141 -10.68203125 40.54824219 -9.765625 40.51171875 C-8.54020996 40.47244263 -8.54020996 40.47244263 -7.29003906 40.43237305 C-4.47693523 39.90124225 -3.0587319 38.97066247 -1 37 C-0.51868815 33.67417848 -0.56258637 30.48657923 -0.56640625 27.12890625 C0 24 0 24 2.53515625 21.58984375 C3.34855469 21.06519531 4.16195312 20.54054688 5 20 C4.360625 19.649375 3.72125 19.29875 3.0625 18.9375 C0.07514633 16.13119807 0.25752375 14.05599902 0 10 C-0.06320841 6.66454067 -0.06040006 3.33542562 0 0 Z " fill="#A08ACB" transform="translate(55,21)"/>
<path d="M0 0 C2.37531394 -0.0543965 4.74935883 -0.09385864 7.125 -0.125 C7.79015625 -0.14175781 8.4553125 -0.15851562 9.140625 -0.17578125 C14.19634926 -0.22534717 18.75445807 0.21905296 22.8125 3.4375 C25.27332506 6.67542772 25.1083485 9.79037783 25.0625 13.6875 C25.05347656 14.68136719 25.04445313 15.67523438 25.03515625 16.69921875 C25.02355469 17.45847656 25.01195313 18.21773437 25 19 C23.02 19.33 21.04 19.66 19 20 C18.87882812 19.15695313 18.75765625 18.31390625 18.6328125 17.4453125 C18.46523438 16.34960938 18.29765625 15.25390625 18.125 14.125 C17.96257813 13.03445312 17.80015625 11.94390625 17.6328125 10.8203125 C17.23743487 7.88067286 17.23743487 7.88067286 15 6 C15 5.01 15 4.02 15 3 C10.05 3 5.1 3 0 3 C0 2.01 0 1.02 0 0 Z " fill="#7D5BB9" transform="translate(37,10)"/>
<path d="M0 0 C0.66 1.32 1.32 2.64 2 4 C-1.3183077 5.98960773 -3.79959699 6.2361745 -7.640625 6.1953125 C-8.71054687 6.18886719 -9.78046875 6.18242188 -10.8828125 6.17578125 C-11.99398437 6.15902344 -13.10515625 6.14226562 -14.25 6.125 C-15.37664063 6.11597656 -16.50328125 6.10695313 -17.6640625 6.09765625 C-20.44292365 6.07410658 -23.2213539 6.0412168 -26 6 C-26 4.35 -26 2.7 -26 1 C-22.7917943 0.83081552 -19.58341796 0.66510635 -16.375 0.5 C-15.47136719 0.45230469 -14.56773438 0.40460937 -13.63671875 0.35546875 C-9.08545547 0.12292245 -4.55915017 -0.06058671 0 0 Z " fill="#835EBB" transform="translate(56,61)"/>
<path d="M0 0 C0.66 0.66 1.32 1.32 2 2 C3.93257855 2.36831081 3.93257855 2.36831081 6.1328125 2.4140625 C7.34130859 2.47207031 7.34130859 2.47207031 8.57421875 2.53125 C9.83685547 2.57765625 9.83685547 2.57765625 11.125 2.625 C11.97449219 2.66367187 12.82398437 2.70234375 13.69921875 2.7421875 C15.79911684 2.83656494 17.89952891 2.91937586 20 3 C20 4.65 20 6.3 20 8 C16.77100574 8.0875127 13.54231884 8.14056146 10.3125 8.1875 C8.94448242 8.22520508 8.94448242 8.22520508 7.54882812 8.26367188 C-1.00895523 8.35702951 -1.00895523 8.35702951 -5 5 C-5.33 4.34 -5.66 3.68 -6 3 C-4.02 3 -2.04 3 0 3 C0 2.01 0 1.02 0 0 Z " fill="#9E87CA" transform="translate(35,36)"/>
<path d="M0 0 C0.06058594 0.95261719 0.12117188 1.90523437 0.18359375 2.88671875 C0.26738281 4.14097656 0.35117187 5.39523438 0.4375 6.6875 C0.51871094 7.92886719 0.59992187 9.17023437 0.68359375 10.44921875 C0.94491317 13.38180337 1.34798379 16.13441617 2 19 C-0.31 19 -2.62 19 -5 19 C-6.2039337 15.24600202 -6.09877617 11.66782588 -6.0625 7.75 C-6.05347656 6.48671875 -6.04445313 5.2234375 -6.03515625 3.921875 C-6.02355469 2.95765625 -6.01195313 1.9934375 -6 1 C-3 0 -3 0 0 0 Z " fill="#815EB5" transform="translate(33,20)"/>
<path d="M0 0 C0.33 0 0.66 0 1 0 C1.12375 1.60875 1.12375 1.60875 1.25 3.25 C2.05476902 7.2738451 2.87729874 8.48169253 6 11 C1.07930252 15.08450052 -4.26995022 14.33827379 -10.3125 14.1875 C-11.33923828 14.17396484 -12.36597656 14.16042969 -13.42382812 14.14648438 C-15.94975909 14.11123883 -18.4746066 14.061967 -21 14 C-21.33 13.34 -21.66 12.68 -22 12 C-14.74 12.33 -7.48 12.66 0 13 C0 11.35 0 9.7 0 8 C-5.94 8 -11.88 8 -18 8 C-18 7.67 -18 7.34 -18 7 C-12.06 7 -6.12 7 0 7 C0 4.69 0 2.38 0 0 Z " fill="#D2C6EA" transform="translate(55,31)"/>
<path d="M0 0 C1.98 0.99 1.98 0.99 4 2 C4.66 2 5.32 2 6 2 C6 4.64 6 7.28 6 10 C4.02 10.33 2.04 10.66 0 11 C0 7.37 0 3.74 0 0 Z " fill="#7A5AAD" transform="translate(56,19)"/>
<path d="M0 0 C1.22589844 0.10828125 1.22589844 0.10828125 2.4765625 0.21875 C3.1365625 1.20875 3.7965625 2.19875 4.4765625 3.21875 C-2.4534375 2.88875 -9.3834375 2.55875 -16.5234375 2.21875 C-16.5234375 2.87875 -16.5234375 3.53875 -16.5234375 4.21875 C-18.8334375 4.54875 -21.1434375 4.87875 -23.5234375 5.21875 C-23.5234375 3.89875 -23.5234375 2.57875 -23.5234375 1.21875 C-20.3152318 1.04956552 -17.10685546 0.88385635 -13.8984375 0.71875 C-12.99480469 0.67105469 -12.09117188 0.62335937 -11.16015625 0.57421875 C-9.40233746 0.48440319 -7.64418404 0.40087386 -5.88574219 0.32421875 C-3.92280915 0.23658057 -1.96111256 0.12175422 0 0 Z " fill="#795CAB" transform="translate(53.5234375,60.78125)"/>
<path d="M0 0 C0.33 1.98 0.66 3.96 1 6 C0.01 6.33 -0.98 6.66 -2 7 C-2.66 6.34 -3.32 5.68 -4 5 C-4.99 5.495 -4.99 5.495 -6 6 C-6.99 4.02 -7.98 2.04 -9 0 C-5.93109813 -1.53445094 -3.29905734 -0.54984289 0 0 Z " fill="#8365C0" transform="translate(61,15)"/>
<path d="M0 0 C0.99 0.33 1.98 0.66 3 1 C2.34 1.66 1.68 2.32 1 3 C0.6936141 5.73434962 0.4886664 8.38279821 0.375 11.125 C0.33632813 11.87910156 0.29765625 12.63320313 0.2578125 13.41015625 C0.16348969 15.27303184 0.08065338 17.13648255 0 19 C-0.33 19 -0.66 19 -1 19 C-1 14.38 -1 9.76 -1 5 C-2.65 5.66 -4.3 6.32 -6 7 C-6.33 5.35 -6.66 3.7 -7 2 C-6.34 2.66 -5.68 3.32 -5 4 C-4.01 4 -3.02 4 -2 4 C-1.34 2.68 -0.68 1.36 0 0 Z " fill="#9D84C5" transform="translate(34,15)"/>
<path d="M0 0 C0.33 0 0.66 0 1 0 C1 2.97 1 5.94 1 9 C2.65 9 4.3 9 6 9 C4.79618552 11.49361571 3.54571278 13.68143083 2 16 C2 14.02 2 12.04 2 10 C1.34 10 0.68 10 0 10 C0 6.7 0 3.4 0 0 Z " fill="#A58CCF" transform="translate(55,21)"/>
<path d="M0 0 C2.475 0.495 2.475 0.495 5 1 C5 1.99 5 2.98 5 4 C3.35 4.66 1.7 5.32 0 6 C0 4.02 0 2.04 0 0 Z " fill="#F7F0FB" transform="translate(55,39)"/>
</svg>
